PathFileType	4	(X/Y/Z)	Patient5_TMGait_0pt45_1_left_03.trc.trc
DataRate	CameraRate	NumFrames	NumMarkers	Units	OrigDataRate	OrigDataStartFrame	OrigNumFrames
58.091286307054	58.091286307054	5	32	mm	58.091286307054	106	       141
Frame#	Time	R.ASIS			L.ASIS			Chest			R.Shoulder			Neck			L.Shoulder			L.Elbow			L.Wrist			R.Elbow			R.Wrist			L.Thigh.Superior			L.Thigh.Lateral			L.Thigh.Inferior			L.Patella			L.Shank.Superior			L.Shank.Lateral			L.Shank.Inferior			L.Heel			L.Midfoot.Lateral			L.Midfoot.Superior			L.Toe			R.Thigh.Superior			R.Thigh.Lateral			R.Thigh.Inferior			R.Patella			R.Shank.Superior			R.Shank.Lateral			R.Shank.Inferior			R.Heel			R.Midfoot.Lateral			R.Midfoot.Superior			R.Toe			
		X1	Y1	Z1	X2	Y2	Z2	X3	Y3	Z3	X4	Y4	Z4	X5	Y5	Z5	X6	Y6	Z6	X7	Y7	Z7	X8	Y8	Z8	X9	Y9	Z9	X10	Y10	Z10	X11	Y11	Z11	X12	Y12	Z12	X13	Y13	Z13	X14	Y14	Z14	X15	Y15	Z15	X16	Y16	Z16	X17	Y17	Z17	X18	Y18	Z18	X19	Y19	Z19	X20	Y20	Z20	X21	Y21	Z21	X22	Y22	Z22	X23	Y23	Z23	X24	Y24	Z24	X25	Y25	Z25	X26	Y26	Z26	X27	Y27	Z27	X28	Y28	Z28	X29	Y29	Z29	X30	Y30	Z30	X31	Y31	Z31	X32	Y32	Z32	

106	5.187500000000	954.208188602343	967.894996336687	606.059166288465	924.713273545011	954.765817403860	369.081139735371	1003.334415888274	1427.557611043209	521.050100830447	917.193314386694	1474.320529057287	700.213256161499	868.127119880722	1545.017848290439	523.941737076360	922.219058106586	1507.992692402370	335.335765871497	817.424488592164	1200.277952824675	197.925992547332	928.907473430408	936.377784620856	169.556158853737	871.895839636183	1146.181919248507	834.484856386854	1087.715046027757	967.085169738867	762.031215728447	990.224469110572	761.522366321432	325.245035543977	935.232176634945	681.382433785058	280.310857752117	1032.027432361854	639.045088299465	323.403176882353	1046.410238559211	489.420288381539	309.771598593860	941.007225861478	410.799036565721	336.493595317059	842.187952711983	406.879909248198	263.632715003326	834.472084851923	344.121519290937	350.900928781277	581.500945534080	277.443595570211	352.862066296695	620.054788862699	190.498921531530	296.582100918974	732.161067144536	159.208632919713	337.131895159234	769.512235169638	53.521295740143	346.665167557885	957.313394583401	735.636228960845	616.645544680492	868.673266516564	659.675341332418	670.985412684411	940.101986942670	608.019031022155	588.732505423550	938.600338351405	512.766854108542	612.252189399463	898.352648996351	420.016827565581	572.420330457829	837.091413992651	345.018538510876	653.510160883780	892.724403802209	281.707922034861	565.020423320492	786.234922213341	53.133065228677	517.973503578449	859.611147637870	24.571435590000	596.539435707522	966.967952029483	88.120641950592	578.221506354219	1070.698823478894	43.988979328309	585.893137299183	
107	5.204714285714	952.697460664794	967.911695552375	608.976589548100	923.397753285334	955.411483964597	371.063554536019	1004.304132244690	1427.197046959812	520.697709963961	919.981718025855	1474.511206550111	700.306496338884	869.543591268105	1545.229171252430	524.300181365495	921.961284067881	1507.856513869687	335.514230291723	815.390718468505	1199.507867250981	200.497569568909	927.670234279053	935.928842150634	171.885765709997	877.328989152126	1147.019224455664	836.635247760567	1092.301934762286	966.393115776722	765.275358207027	993.610413952613	767.358116472123	328.846961887800	942.065245776789	685.962900796029	282.508529981351	1039.737014135068	646.729368996859	326.855735367885	1059.007482695917	496.990309406143	312.053142878019	954.854840172732	415.688302380071	337.584854177969	856.419119662974	410.304086780504	264.522299249952	849.495162094014	346.790846443816	351.180330733807	597.591832253604	272.236747422110	352.492240559080	640.268825954009	189.236104102567	294.129927221440	753.220802453747	161.943872601593	334.714378049411	795.178280600517	57.701608213806	341.467745204487	953.893939903932	735.009133641980	618.556198051667	864.399304776639	659.639499334335	672.378341134932	935.699201525513	607.428992233006	590.379789145377	933.292463093544	512.258699938697	613.671022306975	892.335646479554	419.957092126330	573.417024541848	830.535136232142	345.238087294004	654.259174754722	885.949812562033	281.686755538984	565.704696173435	778.328530284769	53.261376647606	518.145519059372	851.724674689592	24.659036235408	596.660891162126	959.118791249907	88.102044476384	578.335835325681	1062.867622935396	44.091039170150	585.922271633452	
108	5.221928571429	950.998167411034	967.968044699412	611.507921952966	922.153471665180	956.349023767944	372.710217106485	1005.331694382892	1426.926630538256	520.228833638981	922.753630391350	1475.117087017755	700.127608356506	871.053573068036	1545.664702986002	524.260072585676	922.111690047797	1507.614766206417	335.414046984867	814.035150606194	1198.751379245076	202.540178938338	926.938163349244	935.374658774551	174.218752109505	881.944426504203	1148.414744302161	838.506171082701	1096.144517442175	966.359652065311	768.071894705623	996.193779086033	773.036201198877	332.462411548804	947.921995808093	690.641649480382	284.735747951713	1046.140199772683	654.226353387376	330.492467771775	1070.253217862389	504.756353322041	314.560108112022	968.219530693625	420.253171069746	338.919008551659	870.004295127494	412.475060858330	265.870004747632	864.895856827896	347.890341010831	351.662875908603	615.245150143214	262.201852238863	352.731022890577	662.756987713550	184.222844675616	291.899364064201	776.839413894464	162.500094819433	332.052044663369	824.877741461252	61.258722684994	335.510128077148	950.880200165033	734.553394507722	620.316670423306	860.613467856590	659.607084134400	673.476001000323	932.038388184385	606.920464000906	591.865615232636	928.773866742540	511.796933932081	614.971287631196	887.126308569700	419.833730774076	574.245657666392	824.529034689892	345.467937493890	654.803666152779	879.622858396916	281.561521625592	566.254844861132	770.422053924112	53.370193884701	518.274690984439	843.858421390252	24.774984583755	596.748161007835	951.301226713680	88.072314995847	578.436449737472	1055.054921748969	44.169776321467	585.957921394022	
109	5.239142857143	949.235251758006	967.983163421728	613.403535904578	920.943356932577	957.434498058966	374.009487833697	1006.413226021020	1426.671281559296	519.723180026773	925.421374084703	1476.046228004286	699.759511592840	872.637120966951	1546.213797031411	523.901571448534	922.677656544367	1507.179554773791	335.094926870934	813.320740357855	1197.955725617005	204.038905452214	926.706323184847	934.687198522617	176.495208597070	885.696694335632	1150.270433009832	840.223057075087	1099.256636308618	967.075729065126	770.344806566737	997.982008810420	778.295155394415	335.804237167787	952.750085350344	695.140692045439	286.752282516667	1051.243248326128	661.221875870531	334.003155386712	1080.129185572841	512.461611634136	317.054293553316	981.155833053956	424.350351804063	340.320725591078	883.036630833707	413.238364934193	267.503730394437	880.812765424028	347.414799266710	352.235757005970	634.969240954048	247.963656424975	353.509589342395	687.465054554452	175.884116439655	289.959214057031	802.766087064280	160.983758227383	329.201348015921	857.817962439818	63.984254861736	328.976224384752	948.138749035837	734.168150039057	621.783019099054	857.144257724771	659.570654191720	674.273505317129	928.764687099157	606.418619941238	593.072010652143	924.664293117909	511.326947895908	616.022570427923	882.352435072140	419.670362157138	574.864260145770	818.847398250773	345.706215609893	655.158011633325	873.531612198702	281.374438291309	566.650988019701	762.515755732337	53.445351899909	518.347812706653	836.015395806470	24.899065762067	596.792571593949	943.499110169643	88.033653024999	578.521702036286	1047.253699657420	44.219945837097	585.994688779338	
110	5.256357142857	947.534266760147	967.878917072816	614.548188191456	919.734464570165	958.496148614864	374.988852705950	1007.537109288643	1426.375336466721	519.217991500104	927.890256103592	1477.178375381151	699.262461586698	874.265615138123	1546.761543993020	523.293965272024	923.603975801433	1506.503082044557	334.598508401040	813.190754976703	1197.054143517355	205.033447237702	926.938062224967	933.825040360324	178.643129193612	888.604664602438	1152.445256927064	841.865689982161	1101.679603634414	968.508467341406	772.058009357049	999.001926328279	782.901027201459	338.682679869809	956.526003772082	699.205359149063	288.377197152469	1055.064776115456	667.433650388725	337.161586510941	1088.592720715357	519.860452715264	319.321882730989	993.671636655545	427.899515904152	341.620940434409	895.608932624548	412.535111332463	269.260605563742	897.349954518788	345.493959919438	352.793870587851	657.217176786420	230.314275359315	354.765309890678	714.375177467247	164.788655917502	288.379920291502	830.764219108002	157.684680394347	326.241529535571	893.242787237794	65.907532768600	322.096266811510	945.479710636101	733.752347536352	622.868629434904	853.785520946930	659.519157008785	674.800853026908	925.511826639193	605.864864855917	593.933012823002	920.581936754309	510.800253529976	616.743445273794	877.640327294385	419.493147812416	575.269257797504	813.244556107838	345.950096221662	655.357588382147	867.465144827177	281.167394796165	566.901198003850	754.611968196982	53.482255965327	518.364648048625	828.194110187145	25.008304255296	596.792545206644	935.691915999776	87.988663901717	578.595075200021	1039.453321859561	44.243853168259	586.029584112775	
